<?xml version="1.0" encoding="UTF-8"?>
<svg version="1.1" xmlns="http://www.w3.org/2000/svg" width="80" height="58">
<path d="M0 0 C1.57689857 -0.01429802 1.57689857 -0.01429802 3.18565369 -0.02888489 C4.32523026 -0.02797348 5.46480682 -0.02706207 6.63891602 -0.02612305 C7.80536148 -0.03040817 8.97180695 -0.0346933 10.17359924 -0.03910828 C12.64420929 -0.04485981 15.11483627 -0.04534581 17.58544922 -0.04101562 C21.37374669 -0.0378577 25.16126219 -0.06129866 28.94946289 -0.08666992 C31.34594628 -0.08894295 33.74243177 -0.08964639 36.13891602 -0.08862305 C37.84524452 -0.10243767 37.84524452 -0.10243767 39.58604431 -0.11653137 C41.16767113 -0.10718819 41.16767113 -0.10718819 42.78125 -0.09765625 C43.71009506 -0.09828568 44.63894012 -0.0989151 45.59593201 -0.0995636 C48.39101322 0.34376295 49.28334556 1.02972027 50.95532227 3.2746582 C51.34610783 5.99973618 51.0914918 8.50587777 50.95532227 11.2746582 C49.96532227 11.6046582 48.97532227 11.9346582 47.95532227 12.2746582 C48.64368164 12.87600586 48.64368164 12.87600586 49.34594727 13.48950195 C56.5094409 20.12626812 59.14216443 25.89562582 59.51782227 35.7121582 C59.28460602 44.01632223 57.06155523 49.56020752 51.78205872 55.87345886 C48.28662641 58.84268854 46.6760482 58.88431243 42.14550781 58.84228516 C41.48153488 58.84301529 40.81756195 58.84374542 40.13346863 58.84449768 C37.95214374 58.84103106 35.77298985 58.80222133 33.59204102 58.76293945 C32.07462226 58.75360785 30.55718838 58.74649337 29.03974915 58.74150085 C25.05600002 58.72245787 21.07317 58.67338203 17.08978271 58.61798096 C13.02100049 58.56672918 8.95206898 58.54397427 4.88305664 58.51879883 C-3.09327547 58.46525919 -11.0688621 58.37998087 -19.04467773 58.2746582 C-22.01530399 51.27983942 -22.33850508 43.72783139 -20.20483398 36.3840332 C-18.0792041 31.71766727 -16.07880874 29.18126125 -11.79467773 26.3996582 C-9.33000024 24.51191833 -8.20772752 23.13001062 -7.62182617 20.05639648 C-7.13083279 14.78368417 -7.10480035 9.517586 -7.23657227 4.2265625 C-6.79699156 -0.24474507 -3.70010682 0.01836954 0 0 Z " fill="#A4C9FD" transform="translate(21.044677734375,-0.274658203125)"/>
<path d="M0 0 C4.40617281 2.16303029 7.1644597 4.41114924 9 9 C9.79371361 14.95285206 8.83706573 18.6959206 6 24 C6.17060519 26.81498567 7.07379475 28.11353038 8.625 30.5 C10 33 10 33 9.5859375 35.15625 C9.39257812 35.7646875 9.19921875 36.373125 9 37 C1.52534555 37.10134735 -5.949132 37.1714435 -13.42431641 37.21972656 C-15.96767803 37.23985272 -18.51099333 37.26715637 -21.05419922 37.30175781 C-24.70812404 37.3502297 -28.36143756 37.37295916 -32.015625 37.390625 C-33.15429016 37.41127014 -34.29295532 37.43191528 -35.46612549 37.45318604 C-36.52692322 37.45348816 -37.58772095 37.45379028 -38.68066406 37.45410156 C-39.61332092 37.46298401 -40.54597778 37.47186646 -41.50689697 37.48101807 C-44.83561557 36.83877675 -46.01585348 35.71778907 -48 33 C-48 31.35 -48 29.7 -48 28 C-35.79 27.67 -23.58 27.34 -11 27 C-12.65 25.35 -14.3 23.7 -16 22 C-18.77637562 19.22362438 -18.9900755 18.1042073 -19.375 14.0625 C-19.13738678 8.71620253 -16.99305909 6.08994291 -13.4375 2.1875 C-9.37219171 -1.01608459 -4.93240784 -0.86617894 0 0 Z " fill="#6CA8FB" transform="translate(56,21)"/>
<path d="M0 0 C3.65239297 -0.53264064 5.83819178 -0.67735611 9.0703125 1.20703125 C15.51714799 6.44048896 19.38651501 12.33349126 20.4765625 20.625 C20.85055544 30.3881842 18.97349699 37.72671773 12.5 45.125 C10 47 10 47 7.1875 47.3125 C6.465625 47.209375 5.74375 47.10625 5 47 C4.896875 46.278125 4.79375 45.55625 4.6875 44.8125 C4.14498201 41.921853 4.14498201 41.921853 2.375 39.5 C1 37 1 37 1.1875 34.4375 C2 32 2 32 3.02734375 30.12109375 C4.6854161 26.50529743 4.59151478 22.8929926 4 19 C3.34 18.0925 2.68 17.185 2 16.25 C-1.14098799 11.14589451 -0.31226709 5.84633389 0 0 Z " fill="#EAEAEB" transform="translate(60,11)"/>
<path d="M0 0 C4.18587144 1.7289469 6.17315321 3.86555726 8 8 C8.59047513 11.96461874 8.19372634 13.6471413 6.25 17.1875 C1.85543237 22.68070953 1.85543237 22.68070953 -2.04296875 23.3515625 C-6.30674106 23.62295839 -9.12970214 23.37659584 -12.5 20.625 C-16.13542732 16.80780131 -16.39236502 14.44157848 -16.359375 9.328125 C-15.75455722 5.40995764 -13.83123243 3.69641184 -11 1 C-7.54820431 -0.72589785 -3.78133961 -0.36043965 0 0 Z " fill="#C7D9FA" transform="translate(55,23)"/>
<path d="M0 0 C0 8.91 0 17.82 0 27 C-1.98 27 -3.96 27 -6 27 C-4.94124926 30.40312738 -3.99097846 33.01353231 -2 36 C-5.3 36 -8.6 36 -12 36 C-15.17538356 29.20289383 -15.24292703 21.27798142 -13.16015625 14.109375 C-11.18412209 9.77141448 -5.56834643 0 0 0 Z " fill="#EAEBEC" transform="translate(14,22)"/>
<path d="M0 0 C0.91120605 0.01047363 1.82241211 0.02094727 2.76123047 0.03173828 C3.74736328 0.03818359 4.73349609 0.04462891 5.74951172 0.05126953 C7.29832031 0.07640625 7.29832031 0.07640625 8.87841797 0.10205078 C9.91869141 0.11107422 10.95896484 0.12009766 12.03076172 0.12939453 C14.60520889 0.15301331 17.17920009 0.18594929 19.75341797 0.22705078 C15.20796342 6.23354429 15.20796342 6.23354429 11.75341797 8.22705078 C9.17529297 8.52001953 9.17529297 8.52001953 6.50341797 8.41455078 C5.61138672 8.38748047 4.71935547 8.36041016 3.80029297 8.33251953 C3.12482422 8.29771484 2.44935547 8.26291016 1.75341797 8.22705078 C1.75341797 9.21705078 1.75341797 10.20705078 1.75341797 11.22705078 C3.40341797 11.22705078 5.05341797 11.22705078 6.75341797 11.22705078 C1.10817375 17.02910734 1.10817375 17.02910734 -2.24658203 19.22705078 C-2.90658203 19.22705078 -3.56658203 19.22705078 -4.24658203 19.22705078 C-4.30038781 16.43512874 -4.34015872 13.64423668 -4.37158203 10.85205078 C-4.38833984 10.05798828 -4.40509766 9.26392578 -4.42236328 8.44580078 C-4.43993676 6.37213063 -4.34993371 4.29821837 -4.24658203 2.22705078 C-2.24658203 0.22705078 -2.24658203 0.22705078 0 0 Z " fill="#90BCFD" transform="translate(18.24658203125,-0.22705078125)"/>
<path d="M0 0 C4.40617281 2.16303029 7.1644597 4.41114924 9 9 C9.79371361 14.95285206 8.83706573 18.6959206 6 24 C6.17060519 26.81498567 7.07379475 28.11353038 8.625 30.5 C10 33 10 33 9.6875 35.3125 C9.460625 35.869375 9.23375 36.42625 9 37 C6.64864224 34.81080484 5.09924253 33.22982482 3.8125 30.25 C2.26607238 27.79541872 2.26607238 27.79541872 -0.01171875 27.75390625 C-1.60485257 27.79340544 -3.19757119 27.85509268 -4.7890625 27.9375 C-9.23489741 28.06317731 -11.46661114 26.48377129 -14.6875 23.5625 C-18.24839225 19.61664642 -19.41321087 17.36552045 -19.24609375 11.98828125 C-18.6600421 7.25335599 -15.53348942 3.83920239 -11.87109375 0.953125 C-8.06489036 -0.98573435 -4.11944437 -0.72341462 0 0 Z M-16 7 C-17.74221711 10.48443422 -17.58675154 14.19887045 -17 18 C-15.29748281 21.07469523 -13.18773492 23.40613254 -10 25 C-6.24298142 25.5259826 -2.57249487 25.82762888 0.85546875 24.0234375 C4.85953941 20.80040778 6.7210841 18.13835525 7.375 13.125 C6.89541545 9.12846204 5.53260567 7.09540692 3 4 C-4.10580738 -0.3556518 -10.52767798 1.25406188 -16 7 Z " fill="#432EBA" transform="translate(56,21)"/>
<path d="M0 0 C5.6233202 -0.09892174 11.24613333 -0.17149342 16.87011719 -0.21972656 C18.78296735 -0.23983452 20.69575611 -0.26712507 22.60839844 -0.30175781 C25.35887811 -0.35031249 28.10854477 -0.37297658 30.859375 -0.390625 C31.71368103 -0.41127014 32.56798706 -0.43191528 33.44818115 -0.45318604 C39.42152696 -0.45544041 39.42152696 -0.45544041 42.57128906 2.02441406 C43.04276367 2.67635742 43.51423828 3.32830078 44 4 C38.21595259 4.09880115 32.43239516 4.1714363 26.64770508 4.21972656 C24.6795191 4.23985481 22.71139301 4.26716019 20.7434082 4.30175781 C17.9160282 4.35022311 15.08943799 4.37295618 12.26171875 4.390625 C11.38037766 4.41127014 10.49903656 4.43191528 9.59098816 4.45318604 C3.46768875 4.45544041 3.46768875 4.45544041 0.92114258 1.97558594 C0.465177 0.9976709 0.465177 0.9976709 0 0 Z " fill="#5598FA" transform="translate(9,54)"/>
<path d="M0 0 C0.99 0.33 1.98 0.66 3 1 C3.50537432 6.30643041 2.30655751 8.86680312 -1 13 C-3.02470679 15.24967421 -4.23444747 15.94029486 -7.25390625 16.17578125 C-9.51161136 16.1863808 -11.74637414 16.13001688 -14 16 C-12.71567586 10.68582049 -10.74133388 8.48130768 -6.4375 5.1875 C-5.44621094 4.41792969 -4.45492187 3.64835937 -3.43359375 2.85546875 C-2.22896484 1.93701172 -2.22896484 1.93701172 -1 1 C-0.67 0.67 -0.34 0.34 0 0 Z " fill="#BAD3FB" transform="translate(60,30)"/>
<path d="M0 0 C1.875 1 1.875 1 3 3 C3.24131207 5.71878263 3.1347929 8.2592111 3 11 C-0.96 11 -4.92 11 -9 11 C-9.36180905 3.64321608 -9.36180905 3.64321608 -7.875 1 C-5.10184376 -0.47901666 -3.08815875 -0.38601984 0 0 Z " fill="#6AA6FB" transform="translate(69,0)"/>
<path d="M0 0 C1.484375 2.06640625 1.484375 2.06640625 2.75 4.5625 C3.17796875 5.38878906 3.6059375 6.21507812 4.046875 7.06640625 C4.36140625 7.70449219 4.6759375 8.34257813 5 9 C3.2507786 9.08142927 1.50045458 9.13938541 -0.25 9.1875 C-1.71179688 9.23970703 -1.71179688 9.23970703 -3.203125 9.29296875 C-6.42139031 8.95585995 -7.74661745 8.2958992 -10 6 C-10.25 2.8125 -10.25 2.8125 -10 0 C-3.31385155 -1.36762127 -3.31385155 -1.36762127 0 0 Z " fill="#92BCFD" transform="translate(59,49)"/>
<path d="M0 0 C3.86764472 1.82834114 5.55709736 3.34278963 7.9375 6.875 C9.14005385 10.41192307 8.93636249 12.42479777 8 16 C7.67 16 7.34 16 7 16 C6.71125 14.9275 6.4225 13.855 6.125 12.75 C4.80982157 7.5199262 4.80982157 7.5199262 1.20703125 3.91796875 C-2.48727954 2.38139701 -6.0726322 2.41194493 -10 3 C-12.87029869 4.79393668 -14.49131638 5.98263276 -16 9 C-16.06996014 10.70702735 -16.08440154 12.41668003 -16.0625 14.125 C-16.04896484 15.49011719 -16.04896484 15.49011719 -16.03515625 16.8828125 C-16.02355469 17.58148438 -16.01195312 18.28015625 -16 19 C-16.66 19.33 -17.32 19.66 -18 20 C-19.59892915 16.8021417 -19.36262646 13.47852787 -19 10 C-15.34712484 1.27368711 -8.94783466 -1.55677774 0 0 Z " fill="#664ECF" transform="translate(56,21)"/>
<path d="M0 0 C0.33 0 0.66 0 1 0 C1.50537432 5.30643041 0.30655751 7.86680312 -3 12 C-5.40439855 14.32683731 -6.39051145 14.95844396 -9.75 15.1875 C-10.4925 15.125625 -11.235 15.06375 -12 15 C-9.64338778 10.28677556 -6.27928084 7.00065235 -2 4 C-1.34 4 -0.68 4 0 4 C0 2.68 0 1.36 0 0 Z " fill="#97B7F8" transform="translate(62,31)"/>
<path d="M0 0 C5.61 0 11.22 0 17 0 C17 0.99 17 1.98 17 3 C11.39 3 5.78 3 0 3 C0 2.01 0 1.02 0 0 Z " fill="#C1DBFE" transform="translate(20,35)"/>
<path d="M0 0 C5.61 0 11.22 0 17 0 C17 0.99 17 1.98 17 3 C11.39 3 5.78 3 0 3 C0 2.01 0 1.02 0 0 Z " fill="#BED9FE" transform="translate(20,8)"/>
<path d="M0 0 C2.2432954 2.88423694 4.36318083 5.72636167 6 9 C5.6875 11.3125 5.6875 11.3125 5 13 C1.32966073 9.72291137 -0.69281189 6.28477792 -3 2 C-2.01 1.34 -1.02 0.68 0 0 Z " fill="#5B3FD0" transform="translate(60,45)"/>
<path d="M0 0 C5.53846154 -0.36923077 5.53846154 -0.36923077 7.875 1.5 C8.24625 1.995 8.6175 2.49 9 3 C8.67 3.66 8.34 4.32 8 5 C4.7 4.67 1.4 4.34 -2 4 C-1.34 2.68 -0.68 1.36 0 0 Z " fill="#5498FB" transform="translate(63,0)"/>
<path d="M0 0 C0.66 0.66 1.32 1.32 2 2 C1.38125 2.2475 0.7625 2.495 0.125 2.75 C-2.15543159 3.81738099 -2.15543159 3.81738099 -2.9375 6.0625 C-3.288125 6.701875 -3.63875 7.34125 -4 8 C-6.625 8.75 -6.625 8.75 -9 9 C-8.06725891 7.87105124 -7.12859878 6.74699124 -6.1875 5.625 C-5.66542969 4.99851562 -5.14335938 4.37203125 -4.60546875 3.7265625 C-3 2 -3 2 0 0 Z " fill="#A4C4FB" transform="translate(55,37)"/>
<path d="M0 0 C0.94875 0.825 1.8975 1.65 2.875 2.5 C7.38941118 5.79079255 11.61456845 5.48761453 17 5 C17 5.66 17 6.32 17 7 C13.31103735 7.65251353 9.75092499 8.13188906 6 8 C2.54434574 5.51192893 1.33704848 4.01114543 0 0 Z " fill="#4B35C4" transform="translate(39,40)"/>
<path d="M0 0 C0.33 0.99 0.66 1.98 1 3 C3.01508358 3.73323796 3.01508358 3.73323796 5 4 C5.33 5.65 5.66 7.3 6 9 C2.66476748 7.61990379 0.81392049 6.15049348 -1 3 C-0.67 2.01 -0.34 1.02 0 0 Z " fill="#B0BBF1" transform="translate(40,36)"/>
<path d="M0 0 C0.33 0 0.66 0 1 0 C1.27429625 5.39449293 1.36055646 8.51925805 -2 13 C-3.33332095 10.3333581 -2.67102033 8.83319697 -2 6 C-1.34 6 -0.68 6 0 6 C0 4.02 0 2.04 0 0 Z " fill="#381FA5" transform="translate(64,31)"/>
<path d="M0 0 C1.35432675 1.31200404 2.68733482 2.64631404 4 4 C4 4.33 4 4.66 4 5 C1.69 5 -0.62 5 -3 5 C-2.01 3.35 -1.02 1.7 0 0 Z " fill="#E4E3EA" transform="translate(60,53)"/>
<path d="M0 0 C0.99 0.33 1.98 0.66 3 1 C0.03 3.475 0.03 3.475 -3 6 C-3 3 -3 3 -1.5 1.3125 C-0.7575 0.6628125 -0.7575 0.6628125 0 0 Z " fill="#869CED" transform="translate(58,40)"/>
<path d="M0 0 C0.33 0 0.66 0 1 0 C1.04254356 1.99954746 1.04080783 4.00041636 1 6 C0 7 0 7 -2.5625 7.0625 C-3.7690625 7.0315625 -3.7690625 7.0315625 -5 7 C-3.625 5.5 -3.625 5.5 -2 4 C-1.34 4 -0.68 4 0 4 C0 2.68 0 1.36 0 0 Z " fill="#A3AFEE" transform="translate(62,31)"/>
</svg>
